<svg width="32" height="32" fill="none" xmlns="http://www.w3.org/2000/svg"><g clip-path="url('#clip0_26_428')" fill="#292929"><path d="M4 18.667C4 19.403 4.597 20 5.333 20h21.334a1.333 1.333 0 0 0 0-2.667H5.333c-.736 0-1.333.597-1.333 1.334Zm0-5.334c0 .737.597 1.334 1.333 1.334h21.334a1.333 1.333 0 0 0 0-2.667H5.333C4.597 12 4 12.597 4 13.333Zm1.333-6.666a1.333 1.333 0 1 0 0 2.666h21.334a1.333 1.333 0 0 0 0-2.666H5.333ZM26.667 25.333H5.333a1.333 1.333 0 0 1 0-2.666h21.334a1.333 1.333 0 0 1 0 2.666Z"/></g><defs><clipPath id="clip0_26_428"><path fill="#fff" d="M0 0h32v32H0z"/></clipPath></defs></svg>